<?xml version="1.0" encoding="iso-8859-1"?>
<!-- Generator: Adobe Illustrator 19.0.0, SVG Export Plug-In . SVG Version: 6.00 Build 0)  -->
<svg version="1.1" id="Capa_1" xmlns="http://www.w3.org/2000/svg" xmlns:xlink="http://www.w3.org/1999/xlink" x="0px" y="0px"
	 viewBox="0 0 512.001 512.001" style="enable-background:new 0 0 512.001 512.001;" xml:space="preserve">
<g>
	<path style="fill:#FCC69D;" d="M383.968,313.875l0.026-17.932c0.034-23.661-9.35-46.362-26.081-63.093l-23.685-23.685l0,0
		l-47.726-47.726c-7.097-7.097-18.603-7.097-25.7,0l0,0c-6.794,6.794-7.066,17.619-0.852,24.758l-12.2-12.2
		c-6.495-6.495-16.911-7.545-24.191-1.944c-8.543,6.573-9.425,18.636-2.691,26.372l-10.938-10.939
		c-6.472-6.472-17.781-7.291-24.793-1.408c-8.285,6.952-8.687,19.328-1.208,26.807l11.239,11.239
		c-7.735-6.734-19.798-5.852-26.372,2.691c-5.601,7.279-4.551,17.696,1.944,24.191l65.742,65.742c2.236,2.236-0.575,5.82-3.279,4.18
		l-17.27-10.47c-8.404-5.095-19.502-3.117-25.183,4.904c-6.041,8.529-3.859,20.349,4.811,26.163l40.849,27.392
		c14.705,9.861,32.016,15.114,49.721,15.089l27.745-0.039L431.909,502l70.092-70.092L383.968,313.875z"/>
	<path style="fill:#FCC69D;" d="M128.034,198.125l-0.026,17.932c-0.034,23.661,9.35,46.362,26.081,63.093l23.685,23.685l0,0
		l47.726,47.726c7.097,7.097,18.603,7.097,25.7,0l0,0c6.794-6.794,7.066-17.619,0.852-24.758l12.2,12.2
		c6.495,6.495,16.911,7.546,24.191,1.944c8.543-6.573,9.425-18.636,2.691-26.372l10.939,10.939
		c6.472,6.472,17.781,7.291,24.793,1.408c8.285-6.952,8.687-19.328,1.208-26.807l-11.239-11.239
		c7.735,6.734,19.798,5.852,26.372-2.691c5.601-7.279,4.551-17.696-1.944-24.191l-65.742-65.742c-2.236-2.236,0.575-5.82,3.279-4.18
		l17.27,10.47c8.404,5.095,19.502,3.117,25.183-4.904c6.041-8.529,3.858-20.349-4.811-26.163l-40.849-27.392
		c-14.705-9.861-32.016-15.114-49.721-15.089l-27.745,0.039L80.093,10L10.001,80.092L128.034,198.125z"/>
	<path style="fill:#FCC69D;" d="M313.876,128.033l-17.932-0.026c-23.661-0.034-46.362,9.35-63.093,26.081l-23.685,23.685l0,0
		l-47.726,47.726c-7.097,7.097-7.097,18.603,0,25.7l0,0c6.794,6.794,17.619,7.066,24.758,0.852l-12.2,12.2
		c-6.495,6.495-7.545,16.911-1.944,24.191c6.573,8.543,18.636,9.425,26.372,2.691l-10.939,10.939
		c-6.472,6.472-7.291,17.781-1.408,24.793c6.952,8.285,19.328,8.687,26.807,1.208l11.239-11.239
		c-6.734,7.735-5.852,19.798,2.691,26.372c7.279,5.601,17.696,4.551,24.191-1.944l65.742-65.742c2.236-2.236,5.82,0.575,4.18,3.279
		l-10.47,17.27c-5.095,8.404-3.117,19.502,4.904,25.183c8.529,6.041,20.349,3.858,26.163-4.811l27.392-40.849
		c9.861-14.705,15.114-32.016,15.089-49.721l-0.039-27.745L502.001,80.092L431.909,10L313.876,128.033z"/>
	<path style="fill:#FCC69D;" d="M198.126,383.967l17.932,0.026c23.661,0.034,46.362-9.35,63.093-26.081l23.685-23.685l0,0
		l47.726-47.726c7.097-7.097,7.097-18.603,0-25.7l0,0c-6.794-6.794-17.619-7.066-24.758-0.852l12.2-12.2
		c6.495-6.495,7.545-16.911,1.944-24.191c-6.573-8.543-18.636-9.425-26.372-2.691l10.939-10.938
		c6.472-6.472,7.291-17.781,1.408-24.793c-6.952-8.285-19.328-8.687-26.807-1.208l-11.239,11.239
		c6.734-7.735,5.852-19.798-2.691-26.372c-7.279-5.601-17.696-4.551-24.191,1.944l-65.742,65.742
		c-2.236,2.236-5.82-0.575-4.18-3.279l10.47-17.27c5.095-8.404,3.117-19.502-4.904-25.183c-8.529-6.041-20.349-3.859-26.163,4.811
		l-27.392,40.849c-9.861,14.705-15.114,32.016-15.089,49.721l0.039,27.745L10.001,431.908L80.093,502L198.126,383.967z"/>
</g>
<path d="M118.028,202.261l-0.02,13.781c-0.008,5.523,4.463,10.007,9.985,10.015c0.005,0,0.01,0,0.015,0
	c5.516,0,9.992-4.468,10-9.985l0.026-17.932c0.004-2.657-1.05-5.207-2.929-7.086L17.072,73.021c-3.906-3.903-10.237-3.904-14.143,0
	c-3.905,3.905-3.905,10.237,0,14.143L118.028,202.261z"/>
<path d="M191.055,135.104c1.876,1.875,4.419,2.929,7.071,2.929c0.004,0,0.01,0,0.014,0l27.745-0.039
	c5.523-0.008,9.994-4.491,9.986-10.014c-0.008-5.519-4.483-9.986-10-9.986c-0.005,0-0.01,0-0.015,0l-23.595,0.033L87.165,2.929
	c-3.905-3.904-10.237-3.904-14.143,0c-3.905,3.905-3.905,10.237,0,14.143L191.055,135.104z"/>
<path d="M431.911,20c2.63,0,5.21-1.07,7.07-2.931c1.86-1.859,2.93-4.439,2.93-7.069s-1.07-5.21-2.93-7.07S434.541,0,431.911,0
	s-5.21,1.069-7.07,2.93s-2.93,4.44-2.93,7.07s1.07,5.21,2.93,7.069C426.701,18.93,429.281,20,431.911,20z"/>
<path d="M216.791,156.006c-3.905,3.906-3.905,10.237,0,14.143c1.953,1.952,4.512,2.929,7.071,2.929s5.119-0.977,7.071-2.929
	l8.988-8.989c14.934-14.934,34.779-23.152,55.894-23.152c0.038,0,0.077,0,0.114,0l17.932,0.025c0.005,0,0.009,0,0.014,0
	c2.652,0,5.196-1.054,7.071-2.929l88.746-88.745c3.905-3.905,3.905-10.237,0-14.143c-3.905-3.904-10.237-3.904-14.142,0
	l-85.811,85.811l-13.782-0.02c-0.049,0-0.095,0-0.143,0c-26.456,0-51.325,10.3-70.036,29.01L216.791,156.006z"/>
<path d="M373.968,198.14l0.04,27.745c0.008,5.518,4.483,9.985,10,9.985c0.005,0,0.01,0,0.015,0
	c5.523-0.008,9.994-4.491,9.986-10.015l-0.034-23.595L509.072,87.163c3.905-3.905,3.905-10.237,0-14.143
	c-3.904-3.904-10.237-3.904-14.142,0L376.897,191.054C375.019,192.933,373.964,195.482,373.968,198.14z"/>
<path d="M509.072,424.837L393.974,309.739l0.02-13.782c0.019-13.139-2.524-25.953-7.558-38.088
	c-2.116-5.102-7.967-7.521-13.068-5.406c-5.102,2.116-7.522,7.967-5.406,13.068c4.017,9.685,6.046,19.912,6.031,30.397
	l-0.026,17.932c-0.004,2.657,1.05,5.207,2.929,7.086L494.93,438.98c1.953,1.952,4.512,2.929,7.071,2.929s5.119-0.977,7.071-2.929
	C512.977,435.074,512.978,428.742,509.072,424.837z"/>
<path d="M320.947,376.897c-1.876-1.875-4.419-2.929-7.071-2.929c-0.004,0-0.01,0-0.014,0l-27.745,0.039
	c-5.523,0.008-9.994,4.491-9.986,10.014c0.008,5.519,4.483,9.986,10,9.986c0.005,0,0.01,0,0.015,0l23.595-0.033l115.098,115.098
	c1.953,1.952,4.512,2.929,7.071,2.929s5.119-0.977,7.071-2.929c3.905-3.905,3.905-10.237,0-14.143L320.947,376.897z"/>
<path d="M80.091,492c-2.63,0-5.21,1.069-7.07,2.93c-1.86,1.86-2.93,4.44-2.93,7.07s1.07,5.21,2.93,7.069
	c1.86,1.86,4.44,2.931,7.07,2.931s5.21-1.07,7.07-2.931c1.87-1.859,2.93-4.439,2.93-7.069s-1.06-5.21-2.93-7.07
	C85.301,493.069,82.721,492,80.091,492z"/>
<path d="M357.633,293.572c10.984-10.984,10.984-28.858,0-39.843c-2.268-2.268-4.832-4.06-7.565-5.391
	c2.338-4.16,3.589-8.867,3.589-13.769c0-7.525-2.93-14.6-8.251-19.922c-2.407-2.406-5.144-4.285-8.067-5.637
	c5.043-10.486,3.231-23.471-5.451-32.154c-8.681-8.679-21.66-10.494-32.145-5.456c-1.375-2.959-3.27-5.687-5.646-8.063
	c-10.986-10.984-28.858-10.982-39.843,0l-39.925,39.926c-0.762-8.093-4.939-15.795-12.039-20.766
	c-6.341-4.44-14.024-6.104-21.634-4.682s-14.174,5.745-18.486,12.174l-27.393,40.85c-11.007,16.415-16.811,35.539-16.783,55.305
	l0.034,23.594L2.93,424.837c-3.905,3.905-3.905,10.237,0,14.143c1.952,1.952,4.512,2.929,7.071,2.929s5.119-0.977,7.071-2.929
	l118.033-118.033c1.878-1.879,2.933-4.429,2.929-7.086l-0.04-27.744c-0.022-15.774,4.609-31.037,13.395-44.138l27.392-40.85
	c1.294-1.929,3.264-3.226,5.547-3.652c2.282-0.426,4.589,0.072,6.491,1.404c3.687,2.582,4.747,7.619,2.414,11.468l-10.704,17.656
	c-3.376,5.568-2.107,12.527,3.016,16.547s12.185,3.594,16.79-1.01l66.061-66.062c3.187-3.188,8.372-3.187,11.559,0
	c1.543,1.544,2.394,3.596,2.394,5.779c0,1.853-0.618,3.607-1.747,5.041l-39.094,39.185c-3.905,3.905-3.905,10.237,0,14.143
	c3.905,3.904,10.237,3.904,14.143,0l50.538-50.629c3.187-3.187,8.372-3.187,11.558-0.001c3.187,3.188,3.187,8.372,0,11.559
	l-50.583,50.584c-3.905,3.905-3.905,10.237,0,14.143c1.953,1.952,4.512,2.929,7.071,2.929s5.119-0.977,7.071-2.929l39.14-39.141
	c3.205-2.516,7.868-2.305,10.819,0.647c1.544,1.544,2.394,3.596,2.394,5.779c0,2.183-0.85,4.234-2.394,5.778l-38.447,38.447
	c-3.905,3.905-3.905,10.237,0,14.143c1.953,1.952,4.512,2.929,7.071,2.929s5.119-0.977,7.071-2.929l25.71-25.71
	c3.205-2.521,7.87-2.309,10.823,0.645c1.544,1.543,2.394,3.596,2.394,5.779c0,2.183-0.85,4.235-2.394,5.778l-71.41,71.411
	c-14.934,14.934-34.779,23.152-55.894,23.152c-0.038,0-0.077,0-0.114,0l-17.932-0.025c-0.005,0-0.009,0-0.014,0
	c-2.652,0-5.196,1.054-7.071,2.929l-92.912,92.912c-3.905,3.905-3.905,10.237,0,14.143c1.953,1.952,4.512,2.929,7.071,2.929
	s5.119-0.977,7.071-2.929l89.977-89.978l13.782,0.02c0.049,0,0.095,0,0.143,0c26.456,0,51.325-10.3,70.036-29.01L357.633,293.572z"
	/>
<g>
</g>
<g>
</g>
<g>
</g>
<g>
</g>
<g>
</g>
<g>
</g>
<g>
</g>
<g>
</g>
<g>
</g>
<g>
</g>
<g>
</g>
<g>
</g>
<g>
</g>
<g>
</g>
<g>
</g>
</svg>
