<svg height="512pt" viewBox="0 -4 512 511" width="512pt" xmlns="http://www.w3.org/2000/svg"><path d="m238.933594 290.632812c-131.898438-.148437-238.78125-107.035156-238.933594-238.933593v-42.664063c0-4.714844 3.820312-8.535156 8.535156-8.535156 4.710938 0 8.53125 3.820312 8.53125 8.535156v42.664063c.136719 122.476562 99.390625 221.730469 221.867188 221.867187 4.710937 0 8.53125 3.820313 8.53125 8.535156 0 4.710938-3.820313 8.53125-8.53125 8.53125zm0 0" fill="#f0c419"/><path d="m273.066406 290.632812c-4.710937 0-8.53125-3.820312-8.53125-8.53125 0-4.714843 3.820313-8.535156 8.53125-8.535156 122.476563-.136718 221.730469-99.390625 221.867188-221.867187v-42.664063c0-4.714844 3.820312-8.535156 8.53125-8.535156 4.714844 0 8.535156 3.820312 8.535156 8.535156v42.664063c-.152344 131.898437-107.035156 238.785156-238.933594 238.933593zm0 0" fill="#f0c419"/><path d="m315.734375 444.234375c0 32.988281-26.746094 59.730469-59.734375 59.730469s-59.734375-26.742188-59.734375-59.730469c0-32.992187 59.734375-93.867187 59.734375-93.867187s59.734375 60.875 59.734375 93.867187zm0 0" fill="#285680"/><path d="m304.382812 430.75c-.136718 17.285156-9.484374 33.1875-24.523437 41.710938-15.039063 8.523437-33.484375 8.378906-48.382813-.382813-14.902343-8.761719-23.996093-24.808594-23.859374-42.09375 1.195312-11.179687 15.53125-35.671875 36.007812-63.320313-16.808594 23.125-28.585938 43.351563-29.523438 52.738282-.164062 23.140625 18.460938 42.03125 41.601563 42.195312 23.136719.164063 42.03125-18.460937 42.195313-41.597656-.9375-9.816406-12.628907-30.125-29.441407-53.25 20.480469 27.734375 34.730469 52.226562 35.925781 64zm0 0" fill="#b0d3f0"/><path d="m297.898438 420c-.105469 14.96875-8.191407 28.742188-21.207032 36.132812-13.015625 7.394532-28.988281 7.28125-41.898437-.296874-12.910157-7.578126-20.796875-21.464844-20.691407-36.433594.9375-9.386719 12.714844-29.613282 29.523438-52.738282 3.839844-5.289062 8.023438-10.75 12.375-16.296874 4.351562 5.546874 8.535156 11.007812 12.457031 16.382812 16.8125 23.125 28.503907 43.433594 29.441407 53.25zm0 0" fill="#4482c3"/><path d="m297.898438 420c-.105469 14.96875-8.191407 28.742188-21.207032 36.132812-13.015625 7.394532-28.988281 7.28125-41.898437-.296874-12.910157-7.578126-20.796875-21.464844-20.691407-36.433594.9375-9.386719 12.714844-29.613282 29.523438-52.738282 3.839844-5.289062 8.023438-10.75 12.375-16.296874 4.351562 5.546874 8.535156 11.007812 12.457031 16.382812 16.8125 23.125 28.503907 43.433594 29.441407 53.25zm0 0" fill="#4482c3"/><path d="m281.601562 324.765625c0 14.140625-11.464843 25.601563-25.601562 25.601563s-25.601562-11.460938-25.601562-25.601563c0-14.136719 11.464843-25.597656 25.601562-25.597656s25.601562 11.460937 25.601562 25.597656zm0 0" fill="#e57e25"/><path d="m273.066406 282.101562c0 9.425782-7.640625 17.066407-17.066406 17.066407s-17.066406-7.640625-17.066406-17.066407c0-9.425781 7.640625-17.066406 17.066406-17.066406s17.066406 7.640625 17.066406 17.066406zm0 0" fill="#f29c1f"/></svg>