<?xml version="1.0" encoding="iso-8859-1"?>
<!-- Generator: Adobe Illustrator 19.0.0, SVG Export Plug-In . SVG Version: 6.00 Build 0)  -->
<svg version="1.1" id="Capa_1" xmlns="http://www.w3.org/2000/svg" xmlns:xlink="http://www.w3.org/1999/xlink" x="0px" y="0px"
	 viewBox="0 0 512 512" style="enable-background:new 0 0 512 512;" xml:space="preserve">
<path style="fill:#BADB47;" d="M438.01,86.61c0,22.16-9.11,42.19-23.79,56.55c-14.26,13.95-33.79,22.56-55.32,22.56
	c-21.52,0-41.04-8.6-55.31-22.56c-1.08-1.04-2.12-2.13-3.14-3.24c-12.84-14.06-20.66-32.77-20.66-53.31s7.82-39.25,20.66-53.31
	c14.47-15.85,35.3-25.8,58.45-25.8C402.59,7.5,438.01,42.92,438.01,86.61z"/>
<g>
	<path style="fill:#82C11F;" d="M414.22,143.16c-14.26,13.95-33.79,22.56-55.32,22.56c-21.52,0-41.04-8.6-55.31-22.56H414.22z"/>
	<path style="fill:#82C11F;" d="M317.97,86.61c0,19.93-6.51,38.37-17.52,53.31c-12.84-14.06-20.66-32.77-20.66-53.31
		s7.82-39.25,20.66-53.31C311.46,48.23,317.97,66.67,317.97,86.61z"/>
</g>
<path style="fill:#FC3E81;" d="M306.97,86.61c0,22.16-9.11,42.19-23.79,56.55c-14.26,13.95-33.79,22.56-55.32,22.56
	s-41.06-8.61-55.32-22.56c-14.68-14.36-23.79-34.39-23.79-56.55c0-43.69,35.42-79.11,79.11-79.11S306.97,42.92,306.97,86.61z"/>
<path style="fill:#F01054;" d="M283.18,143.16c-14.26,13.95-33.79,22.56-55.32,22.56s-41.06-8.61-55.32-22.56H283.18z"/>
<path style="fill:#FD6096;" d="M490.14,439.43v13.36c0,28.56-23.15,51.71-51.71,51.71H73.57c-28.56,0-51.71-23.15-51.71-51.71
	v-13.36c0-28.56,23.15-51.71,51.71-51.71h364.86C466.99,387.72,490.14,410.87,490.14,439.43z"/>
<path style="fill:#FC3E81;" d="M490.14,439.43v13.36c0,28.56-23.15,51.71-51.71,51.71H334.47c76.4-36.76,65.61-90.31,54.06-116.78
	h49.9C466.99,387.72,490.14,410.87,490.14,439.43z"/>
<path style="fill:#FDB659;" d="M490.14,322.65v13.36c0,28.56-23.15,51.71-51.71,51.71H73.57c-28.56,0-51.71-23.15-51.71-51.71
	v-13.36c0-28.56,23.15-51.71,51.71-51.71h364.86C466.99,270.94,490.14,294.09,490.14,322.65z"/>
<path style="fill:#FD9E28;" d="M490.14,322.65v13.36c0,28.56-23.15,51.71-51.71,51.71H269.34
	c134.58-12.35,107.81-93.71,97.37-116.78h71.72C466.99,270.94,490.14,294.09,490.14,322.65z"/>
<path style="fill:#43A3F9;" d="M490.14,205.86v13.37c0,28.56-23.15,51.71-51.71,51.71H73.57c-28.56,0-51.71-23.15-51.71-51.71
	v-13.37c0-28.55,23.15-51.7,51.71-51.7h364.86C466.99,154.16,490.14,177.31,490.14,205.86z"/>
<path style="fill:#1685FB;" d="M490.14,205.86v13.37c0,28.56-23.15,51.71-51.71,51.71h-63.75c55.31-34.09,59.16-83.27,53.59-116.78
	h10.16C466.99,154.16,490.14,177.31,490.14,205.86z"/>
<path d="M497.638,336.012v-13.366c0-22.165-12.251-41.514-30.331-51.66c14.156-7.874,24.823-21.457,28.75-38.183
	c0.947-4.032-1.555-8.068-5.587-9.016c-4.031-0.938-8.069,1.555-9.016,5.588c-4.196,17.875-18.709,30.935-36.416,33.566
	c4.243-5.981,6.749-13.278,6.749-21.153c0-20.209-16.441-36.65-36.65-36.65H81.071c-3.23,0-5.859-2.628-5.859-5.858
	s2.628-5.859,5.859-5.859h12.86c4.142,0,7.5-3.357,7.5-7.5s-3.358-7.5-7.5-7.5h-12.86c-11.501,0-20.859,9.357-20.859,20.859
	c0,11.501,9.357,20.858,20.859,20.858h334.066c11.938,0,21.65,9.712,21.65,21.65c0,11.926-9.691,21.628-21.611,21.649H73.569
	c-24.376,0-44.208-19.831-44.208-44.207v-13.365c0-24.376,19.832-44.208,44.208-44.208H438.43c21.525,0,39.832,15.369,43.531,36.544
	c0.713,4.081,4.597,6.813,8.679,6.098c4.081-0.712,6.811-4.598,6.098-8.678c-4.956-28.372-29.477-48.964-58.307-48.964h-17.105
	c15.379-15.966,24.184-37.364,24.184-60.049c0-12.236-2.524-24.096-7.501-35.251c-1.688-3.782-6.122-5.482-9.905-3.792
	c-3.783,1.688-5.481,6.122-3.793,9.905c4.114,9.218,6.2,19.021,6.2,29.138c0,24.077-11.998,46.406-32.095,59.73
	c-0.151,0.1-0.29,0.21-0.431,0.318H319.82c-0.141-0.108-0.28-0.218-0.43-0.317c-0.453-0.3-0.887-0.621-1.332-0.93
	c-0.2-0.262-0.413-0.517-0.652-0.756c-5.423-5.422-9.558-11.75-12.337-18.804c6.089-11.979,9.4-25.38,9.4-39.241
	c0-5.243-0.469-10.379-1.366-15.368c1.337-1.687,2.777-3.309,4.303-4.834c8.077-8.078,18.816-12.526,30.239-12.526
	s22.162,4.448,30.239,12.526c6.178,6.178,9.581,14.393,9.581,23.13s-3.403,16.952-9.581,23.13c-9.619,9.62-25.27,9.619-34.887,0.001
	c-4.182-4.183-6.08-10.165-5.077-16.004c0.701-4.082-2.04-7.96-6.122-8.661c-4.078-0.703-7.959,2.04-8.661,6.122
	c-1.826,10.632,1.633,21.528,9.253,29.149c7.733,7.733,17.892,11.6,28.05,11.6c10.159,0,20.317-3.866,28.05-11.6
	c9.012-9.013,13.975-20.994,13.975-33.737c0-12.744-4.963-24.726-13.975-33.737c-10.91-10.91-25.416-16.919-40.845-16.919
	c-14.756,0-28.658,5.508-39.387,15.53c-1.65-4.105-3.606-8.054-5.839-11.821C315.959,25.239,336.765,15,358.902,15
	c17.147,0,33.747,6.175,46.741,17.387c3.136,2.705,7.872,2.356,10.578-0.779c2.706-3.136,2.357-7.872-0.779-10.578
	C399.726,7.469,379.646,0,358.902,0c-25.31,0-49.176,11.071-65.542,30.005C277.467,11.639,253.997,0,227.86,0
	c-47.756,0-86.608,38.853-86.608,86.608c0,22.762,8.793,44.105,24.174,60.049H73.569c-32.647,0-59.208,26.561-59.208,59.208v13.365
	c0,22.199,12.288,41.574,30.413,51.708c-18.125,10.134-30.413,29.508-30.413,51.708v13.366c0,22.199,12.288,41.573,30.412,51.707
	c-18.125,10.134-30.412,29.508-30.412,51.708v13.365c0,32.647,26.561,59.208,59.208,59.208h42.342c4.142,0,7.5-3.357,7.5-7.5
	s-3.358-7.5-7.5-7.5H73.569c-24.376,0-44.208-19.832-44.208-44.208v-13.365c0-24.376,19.832-44.208,44.208-44.208H438.43
	c24.376,0,44.208,19.832,44.208,44.208v13.365c0,22.131-16.348,40.513-37.601,43.712c4.244-5.981,6.75-13.279,6.75-21.155
	c0-20.209-16.441-36.649-36.65-36.649H81.071c-3.23,0-5.859-2.629-5.859-5.859s2.628-5.858,5.859-5.858h12.86
	c4.142,0,7.5-3.357,7.5-7.5s-3.358-7.5-7.5-7.5h-12.86c-11.501,0-20.859,9.357-20.859,20.858c0,11.502,9.357,20.859,20.859,20.859
	h334.066c11.938,0,21.65,9.712,21.65,21.65s-9.712,21.649-21.65,21.649H150.089c-4.142,0-7.5,3.357-7.5,7.5s3.358,7.5,7.5,7.5
	h288.342c32.647,0,59.208-26.561,59.208-59.208v-13.365c0-22.2-12.288-41.574-30.412-51.708
	C485.351,377.585,497.638,358.211,497.638,336.012z M293.39,143.232c1.011,1.171,2.052,2.312,3.123,3.425h-6.241
	C291.345,145.542,292.382,144.399,293.39,143.232z M227.86,15c39.485,0,71.609,32.123,71.609,71.608
	c0,14.074-4.121,27.579-11.568,39.03c-0.601,0.623-1.072,1.336-1.418,2.1c-4.958,7.064-11.22,13.274-18.591,18.254
	c-0.3,0.203-0.573,0.429-0.834,0.665h-78.214c-0.606-0.395-1.206-0.796-1.797-1.207c-0.208-0.276-0.43-0.545-0.682-0.797
	c-10.45-10.45-16.206-24.345-16.206-39.124c0-14.778,5.755-28.673,16.206-39.123c8.077-8.078,18.816-12.526,30.239-12.526
	s22.162,4.448,30.239,12.526c6.178,6.178,9.581,14.393,9.581,23.13s-3.403,16.952-9.581,23.13c-9.619,9.62-25.27,9.619-34.887,0.001
	c-4.182-4.183-6.08-10.165-5.077-16.004c0.701-4.082-2.04-7.96-6.122-8.661c-4.077-0.703-7.959,2.04-8.661,6.122
	c-1.826,10.632,1.633,21.528,9.253,29.149c15.468,15.468,40.634,15.468,56.1-0.001c9.012-9.012,13.975-20.993,13.975-33.736
	c0-12.744-4.963-24.726-13.975-33.737c-10.91-10.91-25.416-16.919-40.845-16.919s-29.935,6.009-40.845,16.919
	c-10.033,10.034-16.655,22.566-19.299,36.192c-0.132-1.782-0.207-3.576-0.207-5.383C156.251,47.123,188.375,15,227.86,15z
	 M445.038,379.723c4.244-5.981,6.749-13.278,6.749-21.154c0-20.209-16.441-36.65-36.65-36.65H81.071
	c-3.23,0-5.859-2.628-5.859-5.858s2.628-5.859,5.859-5.859h12.86c4.142,0,7.5-3.357,7.5-7.5s-3.358-7.5-7.5-7.5h-12.86
	c-11.501,0-20.859,9.357-20.859,20.859c0,11.501,9.357,20.858,20.859,20.858h334.066c11.938,0,21.65,9.712,21.65,21.65
	s-9.712,21.649-21.65,21.649H73.569c-24.376,0-44.208-19.831-44.208-44.207v-13.366c0-24.376,19.832-44.207,44.208-44.207H438.43
	c24.376,0,44.208,19.831,44.208,44.207v13.366C482.638,358.142,466.291,376.524,445.038,379.723z"/>
<g>
</g>
<g>
</g>
<g>
</g>
<g>
</g>
<g>
</g>
<g>
</g>
<g>
</g>
<g>
</g>
<g>
</g>
<g>
</g>
<g>
</g>
<g>
</g>
<g>
</g>
<g>
</g>
<g>
</g>
</svg>
