<?xml version="1.0" encoding="iso-8859-1"?>
<!-- Generator: Adobe Illustrator 19.0.0, SVG Export Plug-In . SVG Version: 6.00 Build 0)  -->
<svg version="1.1" id="Layer_1" xmlns="http://www.w3.org/2000/svg" xmlns:xlink="http://www.w3.org/1999/xlink" x="0px" y="0px"
	 viewBox="0 0 512 512" style="enable-background:new 0 0 512 512;" xml:space="preserve">
<path style="fill:#8E8E8E;" d="M153.751,124.552h-67.52c-5.209,0-9.433-4.223-9.433-9.433s4.223-9.433,9.433-9.433h67.52
	c5.209,0,9.433,4.223,9.433,9.433S158.96,124.552,153.751,124.552z"/>
<ellipse style="fill:#EC589B;" cx="61.275" cy="115.117" rx="57.537" ry="48.107"/>
<path style="fill:#D3468D;" d="M36.32,115.12c0-21.835,17.407-40.261,41.246-46.136c-5.167-1.273-10.63-1.968-16.291-1.968
	c-31.777,0-57.537,21.537-57.537,48.104s25.76,48.104,57.537,48.104c5.66,0,11.123-0.694,16.291-1.968
	C53.726,155.381,36.32,136.954,36.32,115.12z"/>
<rect x="140.033" y="82.467" style="fill:#F4C063;" width="54.707" height="83.31"/>
<rect x="140.033" y="82.467" style="fill:#D8B356;" width="21.631" height="83.31"/>
<rect x="310.439" y="111.709" style="fill:#666666;" width="174.543" height="66.759"/>
<polyline style="fill:#F4C063;" points="209.837,234.237 209.837,153.569 124.942,153.569 124.942,234.237 "/>
<polyline style="fill:#D8B356;" points="155.379,234.237 155.379,153.569 124.942,153.569 124.942,234.237 "/>
<path style="fill:#EAA0E3;" d="M96.652,511.996H238.12c47.586-25.339,79.985-75.439,79.985-133.112
	c0-83.239-67.479-150.719-150.719-150.719S16.667,295.645,16.667,378.884C16.667,436.558,49.067,486.657,96.652,511.996z"/>
<g>
	<path style="fill:#D57CD4;" d="M167.39,228.163c-48.245,0-87.347,67.488-87.347,150.723c0,57.678,18.765,107.772,46.346,133.115
		H96.644c-47.579-25.343-79.977-75.437-79.977-133.115C16.667,295.651,84.143,228.163,167.39,228.163z"/>
	<path style="fill:#D57CD4;" d="M215.056,272.421c5.352,7.027,9.57,14.85,13.178,22.914c3.581,8.086,6.431,16.486,8.733,25.022
		c4.568,17.095,6.771,34.753,7.12,52.389c0.347,17.635-1.317,35.335-5.126,52.576c-1.941,8.611-4.421,17.108-7.596,25.344
		c-3.206,8.218-6.979,16.232-11.845,23.603c2.1-17.472,3.84-34.203,4.752-51.019c0.95-16.775,1.255-33.474,0.957-50.176
		c-0.314-16.692-1.126-33.364-2.803-50.051C220.819,306.29,218.36,289.693,215.056,272.421z"/>
</g>
<rect x="287.171" y="162.998" style="fill:#8E8E8E;" width="221.091" height="348.999"/>
<rect x="287.171" y="162.998" style="fill:#666666;" width="7.197" height="348.999"/>
<rect x="287.171" style="fill:#F4C063;" width="221.091" height="139.743"/>
<rect x="287.171" style="fill:#D8B356;" width="8.454" height="139.743"/>
<rect x="334.524" y="241.289" style="fill:#F2F2F2;" width="126.399" height="192.415"/>
<path style="fill:#666666;" d="M467.83,440.627H327.601V234.373h140.227v206.254H467.83z M341.436,426.792h112.558V248.208H341.436
	V426.792z"/>
<path style="fill:#D57CD4;" d="M119.71,272.421c-3.304,17.272-5.763,33.869-7.371,50.603c-1.678,16.687-2.489,33.359-2.803,50.051
	c-0.298,16.702,0.008,33.401,0.957,50.176c0.912,16.815,2.652,33.547,4.752,51.018c-4.865-7.371-8.638-15.385-11.845-23.603
	c-3.176-8.235-5.656-16.732-7.596-25.344c-3.81-17.241-5.473-34.94-5.126-52.576c0.348-17.637,2.552-35.295,7.12-52.389
	c2.303-8.536,5.153-16.936,8.733-25.022C110.14,287.271,114.359,279.448,119.71,272.421z"/>
<g>
</g>
<g>
</g>
<g>
</g>
<g>
</g>
<g>
</g>
<g>
</g>
<g>
</g>
<g>
</g>
<g>
</g>
<g>
</g>
<g>
</g>
<g>
</g>
<g>
</g>
<g>
</g>
<g>
</g>
</svg>
